<?xml version="1.0" encoding="utf-8"?>
<svg viewBox="0 0 211 45" xmlns="http://www.w3.org/2000/svg">
  <defs>
    <style>
      .cls-1, .cls-2 {
        fill: #343434;
        fill-rule: evenodd;
      }

      .cls-2 {
        stroke: #343434;
        stroke-linejoin: round;
        stroke-opacity: 0.5;
        stroke-width: 1px;
      }
    </style>
  </defs>
  <g transform="matrix(1, 0, 0, 1, -6.998999, -7.333994)">
    <path d="M208.579,18.539 C207.621,18.539 206.812,17.826 206.812,16.950 C206.812,16.073 207.621,15.361 208.579,15.361 L214.689,15.361 C215.648,15.361 216.427,16.073 216.427,16.950 L216.427,22.593 C216.427,23.031 216.247,23.442 215.917,23.744 C213.881,25.606 211.185,26.538 208.519,26.538 C205.824,26.538 203.128,25.606 201.091,23.744 C199.115,21.936 198.036,19.525 198.036,16.950 C198.036,14.402 199.115,11.991 201.091,10.183 C203.068,8.348 205.704,7.361 208.519,7.361 C211.305,7.361 213.941,8.348 215.947,10.183 C216.277,10.484 216.427,10.868 216.427,11.279 C216.427,11.690 216.277,12.101 215.917,12.430 C215.558,12.758 215.139,12.895 214.689,12.895 C214.240,12.895 213.791,12.758 213.461,12.430 C212.144,11.224 210.376,10.567 208.519,10.567 C206.632,10.567 204.895,11.224 203.577,12.430 C202.260,13.635 201.511,15.251 201.511,16.950 C201.511,18.648 202.260,20.264 203.577,21.470 C204.925,22.730 206.722,23.360 208.519,23.360 C210.107,23.360 211.664,22.867 212.952,21.908 L212.952,18.539 L208.579,18.539 ZM193.899,26.538 C193.330,26.538 192.791,26.291 192.462,25.853 L183.416,14.018 L183.416,24.949 C183.416,25.826 182.608,26.538 181.649,26.538 C180.691,26.538 179.912,25.826 179.912,24.949 L179.912,8.950 C179.912,8.129 180.631,7.361 181.679,7.361 C182.218,7.361 182.757,7.608 183.087,8.046 L192.132,19.881 L192.132,8.950 C192.132,8.074 192.911,7.361 193.899,7.361 C194.858,7.361 195.637,8.074 195.637,8.950 L195.637,24.949 C195.637,25.798 194.858,26.538 193.899,26.538 ZM173.980,26.538 C173.022,26.538 172.243,25.826 172.243,24.949 L172.243,8.950 C172.243,8.074 173.022,7.361 173.980,7.361 C174.939,7.361 175.717,8.074 175.717,8.950 L175.717,24.949 C175.717,25.826 174.939,26.538 173.980,26.538 ZM169.844,24.949 C169.844,25.826 169.065,26.538 168.107,26.538 C167.627,26.538 167.178,26.374 166.819,26.017 L159.391,18.566 L159.391,24.949 C159.391,25.826 158.582,26.538 157.624,26.538 C156.665,26.538 155.886,25.826 155.886,24.949 L155.886,8.950 C155.886,8.074 156.665,7.361 157.624,7.361 C158.582,7.361 159.391,8.074 159.391,8.950 L159.391,15.333 L166.819,7.882 C167.148,7.553 167.627,7.361 168.107,7.361 C169.095,7.361 169.844,8.101 169.844,8.950 C169.844,9.361 169.694,9.745 169.394,10.046 L162.476,16.950 L169.394,23.853 C169.694,24.155 169.844,24.565 169.844,24.949 ZM143.422,26.538 C137.881,26.538 133.388,22.237 133.388,16.950 C133.388,11.662 137.881,7.361 143.422,7.361 C148.963,7.361 153.486,11.662 153.486,16.950 C153.486,22.237 148.963,26.538 143.422,26.538 ZM143.422,10.567 C139.828,10.567 136.893,13.416 136.893,16.950 C136.893,20.484 139.828,23.333 143.422,23.333 C147.046,23.333 149.981,20.484 149.981,16.950 C149.981,13.416 147.046,10.567 143.422,10.567 ZM120.924,26.538 C115.383,26.538 110.890,22.237 110.890,16.950 C110.890,11.662 115.383,7.361 120.924,7.361 C126.465,7.361 130.988,11.662 130.988,16.950 C130.988,22.237 126.465,26.538 120.924,26.538 ZM120.924,10.567 C117.330,10.567 114.395,13.416 114.395,16.950 C114.395,20.484 117.330,23.333 120.924,23.333 C124.548,23.333 127.483,20.484 127.483,16.950 C127.483,13.416 124.548,10.567 120.924,10.567 ZM102.351,26.538 L96.241,26.538 C95.282,26.538 94.504,25.826 94.504,24.949 L94.504,8.950 C94.504,8.074 95.282,7.361 96.241,7.361 L101.063,7.361 C101.213,7.361 102.501,7.416 103.789,7.992 C105.705,8.868 106.724,10.457 106.724,12.566 C106.724,13.717 106.394,14.758 105.795,15.580 C107.532,16.621 108.491,18.374 108.491,20.538 C108.491,24.237 105.166,26.538 102.351,26.538 ZM101.303,10.567 C101.153,10.567 101.063,10.567 101.063,10.567 L98.008,10.567 L98.008,14.566 L100.614,14.566 C101.063,14.566 103.249,14.484 103.249,12.566 C103.249,10.731 101.872,10.567 101.303,10.567 ZM102.141,17.744 L98.008,17.744 L98.008,23.333 L102.141,23.333 C102.171,23.333 102.980,23.305 103.699,22.949 C104.867,22.346 104.987,21.278 104.987,20.538 C104.987,19.525 104.298,17.744 102.141,17.744 ZM82.039,26.538 C76.498,26.538 72.006,22.237 72.006,16.950 C72.006,11.662 76.498,7.361 82.039,7.361 C87.580,7.361 92.103,11.662 92.103,16.950 C92.103,22.237 87.580,26.538 82.039,26.538 ZM82.039,10.567 C78.445,10.567 75.510,13.416 75.510,16.950 C75.510,20.484 78.445,23.333 82.039,23.333 C85.663,23.333 88.599,20.484 88.599,16.950 C88.599,13.416 85.663,10.567 82.039,10.567 ZM62.628,26.483 L62.388,26.483 C59.842,26.401 57.626,25.086 56.578,23.031 C56.458,22.812 56.428,22.566 56.428,22.346 C56.428,21.744 56.787,21.168 57.446,20.895 C57.686,20.785 57.925,20.758 58.165,20.758 C58.824,20.758 59.483,21.086 59.782,21.689 C60.262,22.648 61.280,23.250 62.508,23.278 L62.658,23.278 C63.706,23.278 64.575,22.977 65.204,22.401 C65.803,21.853 66.132,21.168 66.132,20.429 L66.132,20.319 C66.042,19.059 63.437,17.936 62.298,17.635 L62.179,17.580 C59.094,16.566 57.536,14.785 57.536,12.320 L57.536,12.101 C57.596,10.704 58.285,9.443 59.573,8.567 C60.651,7.800 62.119,7.334 63.676,7.334 L63.946,7.334 C65.204,7.361 66.492,7.827 67.540,8.539 C67.989,8.868 68.229,9.334 68.229,9.800 C68.229,10.128 68.109,10.484 67.869,10.758 C67.510,11.169 67.001,11.389 66.462,11.389 C66.102,11.389 65.743,11.306 65.413,11.087 C64.964,10.758 64.365,10.567 63.826,10.539 L63.646,10.539 C62.179,10.539 61.040,11.224 61.010,12.210 L61.010,12.320 C61.010,13.662 62.149,14.155 63.317,14.594 C64.215,14.840 69.427,16.374 69.607,20.155 L69.607,20.429 C69.607,22.018 68.918,23.524 67.720,24.620 C66.402,25.826 64.605,26.483 62.628,26.483 ZM54.029,24.949 C54.029,25.826 53.250,26.538 52.292,26.538 C51.812,26.538 51.363,26.374 51.004,26.017 L43.576,18.566 L43.576,24.949 C43.576,25.826 42.767,26.538 41.808,26.538 C40.850,26.538 40.071,25.826 40.071,24.949 L40.071,8.950 C40.071,8.074 40.850,7.361 41.808,7.361 C42.767,7.361 43.576,8.074 43.576,8.950 L43.576,15.333 L51.004,7.882 C51.333,7.553 51.812,7.361 52.292,7.361 C53.280,7.361 54.029,8.101 54.029,8.950 C54.029,9.361 53.879,9.745 53.579,10.046 L46.661,16.950 L53.579,23.853 C53.879,24.155 54.029,24.565 54.029,24.949 ZM35.306,23.333 C36.294,23.333 37.073,24.045 37.073,24.949 C37.073,25.826 36.294,26.538 35.306,26.538 L25.721,26.538 C24.733,26.538 23.954,25.826 23.954,24.949 L23.954,8.950 C23.954,8.074 24.733,7.361 25.721,7.361 L35.306,7.361 C36.294,7.361 37.073,8.074 37.073,8.950 C37.073,9.854 36.294,10.567 35.306,10.567 L27.459,10.567 L27.459,15.361 L33.569,15.361 C34.527,15.361 35.306,16.073 35.306,16.950 C35.306,17.826 34.527,18.539 33.569,18.539 L27.459,18.539 L27.459,23.333 L35.306,23.333 ZM20.956,24.949 C20.956,25.826 20.177,26.538 19.219,26.538 C18.740,26.538 18.290,26.374 17.931,26.017 L10.503,18.566 L10.503,24.949 C10.503,25.826 9.694,26.538 8.736,26.538 C7.777,26.538 6.999,25.826 6.999,24.949 L6.999,8.950 C6.999,8.074 7.777,7.361 8.736,7.361 C9.694,7.361 10.503,8.074 10.503,8.950 L10.503,15.333 L17.931,7.882 C18.260,7.553 18.740,7.361 19.219,7.361 C20.207,7.361 20.956,8.101 20.956,8.950 C20.956,9.361 20.806,9.745 20.507,10.046 L13.588,16.950 L20.507,23.853 C20.806,24.155 20.956,24.565 20.956,24.949 Z" class="cls-2"/>
  </g>
</svg>
